<svg xmlns="http://www.w3.org/2000/svg" viewBox="0 0 359.27 360.01"><g id="Layer_2" data-name="Layer 2"><g id="Layer_1-2" data-name="Layer 1"><path d="M35.05,347.84H144.37c7.4-55.61,14.79-111.13,22.24-167.13a39.92,39.92,0,0,0-24.09,13.84c-1.69,2-3.14,4.19-4.75,6.27-10.59,13.71-24.57,20.89-41.85,21.1-7.58.1-15.3.13-22.72-1.18C59,218.25,48.06,210.28,39.9,198.46c-6.14-8.9-14.32-14.82-24.87-17.35a21.53,21.53,0,0,0-2.14-.26c1,7.9,2,15.53,3,23.56L4.17,206c-.69-4.85-1.36-9.49-2-14.12-.68-5-1.26-9.92-2-14.86-.93-6.36,1.46-9.1,8-9,1.1,0,2.2,0,3.71,0v-9c0-8.63.06-17.25,0-25.87A6.9,6.9,0,0,1,16,126.23c7.48-3.71,14.9-7.54,22.41-11.18,5.18-2.52,9.25.08,9.42,5.85,0,1.12,0,2.25,0,3.37,0,11.3.46,11.9,11.93,15.56-.51-4.56,2.13-6.79,5.86-8.5,5.21-2.39,10.23-5.19,15.43-7.59,2.14-1,3-2.28,2.75-4.6a27,27,0,0,1,0-5.61c.47-4.19,4.37-6.71,8.17-4.92,8.34,3.92,16.64,8,24.69,12.45,1.6.89,2.73,3.86,2.86,6,.51,8.15,1.21,9.23,9.93,11.61-1.07-10.13-2.13-20.16-3.24-30.63-2.21,0-4.3.09-6.37,0-3.77-.19-6.08-2.39-6.13-6.16q-.18-11.81,0-23.62C113.78,74,116.27,72,121,72q29.92,0,59.87,0h4.69V67.94q0-29.8,0-59.62c0-6.43,1.84-8.3,8.16-8.31h19.46c6.42,0,8.3,1.85,8.31,8.18V72h4.18q29.75,0,59.5,0c6.32,0,8.17,1.88,8.18,8.31,0,6.62,0,13.25,0,19.87,0,5.83-2,7.78-7.92,7.81H280.8l-2.26,20.15-11.74-1.32c.62-6.39,1.21-12.42,1.81-18.65H138.29c1,9.08,1.91,17.94,2.91,27.27,5.79-2.88,11-5.5,16.25-8.07,6.09-3,10.07-.52,10.09,6.24,0,11.36,0,22.71,0,34.39,1.82,0,3.39,0,5,0,4.92,0,7.5,2.75,6.89,7.57-1.51,11.76-3.15,23.51-4.71,35.27q-5.44,40.84-10.88,81.7c-.88,6.56-1.84,13.11-2.59,19.68-.43,3.69-.52,7.41-.78,11.45h19.09c0-3,.16-6.1,0-9.17-.28-4.39,1-7.61,5.65-8.78-7.78-11.79-8.94-28,6.06-41.9a30.61,30.61,0,0,1-11.34-19.52c-1.18-7.9.78-15.11,5.39-22-5.26-1.33-5.73-5.18-5.8-9.75-.2-12.48.63-24.7,6.08-36.22a66.22,66.22,0,0,1,20.07-24.92l7.17,9.39c-15.48,12.63-22.43,28.89-21.12,48.94H346.82c4-27.12-17.2-55.06-44.7-59A79,79,0,0,0,291.7,150c-12-.09-24,.06-35.93-.06-11.63-.12-23.22-.24-34.1,5.65L216.34,145a48.84,48.84,0,0,1,19.39-6.15c6.81-.66,13.68-.73,20.53-.79,12.22-.12,24.45-.08,36.67,0,37.1.17,66.07,29.27,66.25,66.5,0,2.87-.17,5.76,0,8.62.33,4.48-.87,7.89-5.64,9.14,8.94,15.82,7.5,26.09-5.73,41.72,13.29,16,14.7,26.09,5.71,41.73,4.72,1.24,5.84,4.59,5.68,9.08-.24,6.86-.06,13.73-.06,20.9H347.29V318.21H191.88c0,6.85-.52,13.83.17,20.68.53,5.25,5.59,8.77,10.93,9.09,1,.06,2,0,3,0q63.25,0,126.49.06c5,0,9.39-1,12.78-5.29l9.81,6.64c-5.3,7.26-12.12,10.59-20.65,10.59H205.66c-15.19,0-24.51-8.35-26.28-23.73H158.05c-.81,5.8-1.6,11.58-2.41,17.35-.64,4.56-2.6,6.37-7.17,6.37Q89.72,360,31,360c-4.59,0-6.58-1.79-7.19-6.33q-8.27-62-16.5-124c-.56-4.18-1.12-8.36-1.72-12.9l11.8-1.67C23.28,259.49,29.16,303.61,35.05,347.84Zm237.28-90.22a8.2,8.2,0,0,0,1.48.36c18.7,0,37.4.15,56.1-.06,9.72-.1,17.35-8.39,17.28-18.07A17.93,17.93,0,0,0,330,222.06c-6.73-.2-13.47-.11-20.2,0a5.16,5.16,0,0,0-3.24,1.29C295.22,234.61,284,245.94,272.33,257.62ZM266.24,306a7.57,7.57,0,0,0-.74-1.32c-11.1-11.14-22.19-22.3-33.37-33.35a5.76,5.76,0,0,0-3.62-1.28c-6.11-.12-12.22-.09-18.33-.05-10.57.08-18.61,7.8-18.66,17.87-.06,10.26,8,18.08,18.8,18.11,17.71.05,35.41,0,53.12,0ZM125.81,95.74H281V84.2H125.81ZM289.52,222.32H225.25l32.14,32.23C268,244,278.77,233.11,289.52,222.32Zm24,48H249.23l32.11,32.2Zm-70.58-12.44c-11.63-11.62-22.64-22.47-33.45-33.51-2-2.08-3.81-2.18-6.24-1.25a18.2,18.2,0,0,0-11.61,19c1,8.15,7.47,15.28,15.66,15.66C218.79,258.29,230.35,257.89,242.91,257.89Zm52.86,48c12.5,0,23.93.35,35.33-.12,8.47-.35,15.18-7.65,16-16.14.81-8.2-4.55-16.45-12.42-18.72-1.3-.38-3.45-.25-4.29.58C319,282.65,307.76,294,295.77,305.92Zm-199.83-182v86.44l11.16-1.83c.35-.66.45-.77.45-.88q.08-38,.07-76a3.19,3.19,0,0,0-1.19-2.41C103.09,127.33,99.62,125.7,95.94,123.87Zm-12.41,12c-3,1.47-5.56,3-8.3,4s-3.6,2.6-3.57,5.59c.16,18.85.08,37.69.08,56.54v6.41l11.79,1.78ZM197.7,12.19V71.75h11.5V12.19ZM58.52,201.92l1.24-.67c0-15.33,0-30.66,0-46a2.78,2.78,0,0,0-1.13-2.08c-3.37-1.82-6.83-3.46-10.4-5.23a6.18,6.18,0,0,0-.36,1.31q0,18.93,0,37.87a4.74,4.74,0,0,0,.75,2.78C51.81,194,55.19,197.93,58.52,201.92Zm61.47-54v53.48l.94.49c3.32-4,6.69-8,9.92-12a4.67,4.67,0,0,0,.74-2.78q.07-15.57,0-31.12a3.67,3.67,0,0,0-1.2-2.78C127.05,151.3,123.57,149.7,120,147.93ZM35.62,129.84c-3.67,1.83-6.95,3.33-10.06,5.12a3.91,3.91,0,0,0-1.65,2.85q-.18,15.56,0,31.11a3.59,3.59,0,0,0,1.25,2.7c3.34,1.86,6.83,3.44,10.48,5.23Zm120,11.92c-3.93,2-7.37,3.61-10.76,5.4a2.37,2.37,0,0,0-1.14,1.69c-.07,9.3,0,18.59,0,28.11,3.78-1.88,7.14-3.46,10.39-5.22a3.1,3.1,0,0,0,1.5-2.16C155.61,160.5,155.57,151.42,155.57,141.76Z"/><path d="M251.31,162.32v11.4H239.67v-11.4Z"/><path d="M263.43,173.77V162.3h11.65v11.47Z"/><path d="M287.63,162.09H299v11.66H287.63Z"/><path d="M227.73,186.15h11.46v11.67H227.73Z"/><path d="M263.21,186.19v11.56h-11.6V186.19Z"/><path d="M287.05,197.84h-11.5V186.31h11.5Z"/><path d="M311,197.84H299.5V186.31H311Z"/></g></g></svg>