<svg xmlns="http://www.w3.org/2000/svg" viewBox="0 0 390 390"><defs><style>.cls-1{fill:#fefefe;}.cls-1,.cls-2,.cls-3,.cls-4,.cls-5{stroke:#fefefe;stroke-miterlimit:10;stroke-width:6px;}.cls-2{fill:#020202;}.cls-4{fill:#fdfdfd;}.cls-5{fill:#fcfcfc;}</style></defs><g id="Layer_2" data-name="Layer 2"><g id="Layer_1-2" data-name="Layer 1"><path class="cls-1" d="M3.07,3.07q190.25,0,380.49-.07c2.81,0,3.44.63,3.44,3.44q-.12,188.57,0,377.12c0,2.81-.63,3.44-3.44,3.44Q195,386.88,6.44,387C3.63,387,3,386.37,3,383.56Q3.12,193.32,3.07,3.07ZM75,155.32c-3.3-1.66-6-3.25-8.86-4.39-2.42-1-3.45-2.3-3.22-5,.27-3.1.08-6.24.06-9.37-.06-6.69-4.07-9.13-10.14-6.12-7,3.47-14,7.11-21,10.48-3.34,1.59-4.83,3.86-4.78,7.6.13,10.24-.09,20.49.12,30.73.07,3.19-.52,4.18-4,3.89-6.35-.53-8.71,2.57-7.76,9s1.88,13.09,2.63,19.66c1.06,9.24,1,9.11,10.31,8.06,2.53-.28,2.76-1.25,2.46-3.31-.86-6.06-1.51-12.14-2.44-18.18-.35-2.28-.07-2.8,2.34-2.18A41.33,41.33,0,0,1,55.1,213.52a53.15,53.15,0,0,0,30.34,21.72c7.31,2,14.81,1.65,22.28,1.77,20.11.35,35.88-7.64,47.38-24.22a40.54,40.54,0,0,1,23.69-16.54c2.48-.65,2.89-.29,2.54,2.28-2.86,20.77-5.59,41.56-8.33,62.34q-6.51,49.19-12.95,98.37c-.36,2.81-1.16,3.8-4.27,3.79q-50.5-.22-101,0c-3.82,0-4.9-1.09-5.33-4.77-1.69-14.5-3.74-29-5.66-43.43-3.35-25.24-6.77-50.47-10-75.72-1.24-9.66-1-9.62-10.47-7.93-2,.36-2.64,1.12-2.32,3.16.82,5.18,1.47,10.38,2.16,15.58Q31,309.3,38.94,368.69c.58,4.35,2.57,6.23,6.87,6.23q59.1,0,118.21,0c4.09,0,6.11-1.94,6.69-6,.74-5.19,1.57-10.37,2.08-15.58.2-2,.94-2.43,2.74-2.4,5.49.09,11,.13,16.46,0,2.07-.05,2.55.56,2.81,2.62,1.55,12.26,11.16,21.32,23.11,21.36q66.41.19,132.8,0a23,23,0,0,0,16.16-6.71c3.7-3.51,3.68-3.53-.4-6.28-1.45-1-2.93-1.91-4.32-3-1.23-.94-2.08-1.18-3.32.24a11.41,11.41,0,0,1-9,3.76q-65.47,0-130.94,0c-7.15,0-12.16-5.15-12.27-12.32-.06-4.62.21-9.25-.09-13.86-.19-3.1.66-3.87,3.81-3.86,47.63.12,95.27.07,142.9.11,2.94,0,6.84-1.34,8.54.63,1.44,1.67.45,5.47.46,8.32,0,9.25,0,9.18,9.35,9.07,2.1,0,2.73-.55,2.68-2.68-.14-6.24-.21-12.5,0-18.73.15-4.47-1-7.8-5.78-8.9,7.89-12.82,7.55-25.85-.89-36.42-1.46-1.83-4.58-3.55-4.45-5.13.16-1.95,3-3.63,4.5-5.54,8.36-10.56,8.67-22.6,1-36.39,4.64-1.14,5.91-4.37,5.65-8.77-.21-3.49,0-7-.06-10.49-.48-35.57-29.51-64.59-65-64.9-16.46-.15-32.92,0-49.38,0a64.91,64.91,0,0,0-23.68,4.64c-4.85,1.9-4.84,1.92-2.6,6.49a40.33,40.33,0,0,1,1.95,4c.71,2,1.64,2.24,3.59,1.35A52.9,52.9,0,0,1,261.55,165q23,.1,46,0a54.22,54.22,0,0,1,11.52,1.11c26.14,5.65,43.1,27.32,43.23,54.89,0,3.14-.53,4.1-3.95,4.09q-73.87-.21-147.77-.09a14.59,14.59,0,0,0-1.87,0c-1.55.19-2.11-.31-2.17-2-.55-16,4.15-30,15.28-41.64,1.86-2,5.55-3.42,5.38-5.68-.19-2.42-3.07-4.63-4.77-6.94-.14-.2-.31-.39-.43-.6-.92-1.63-1.78-1.38-3.13-.28a66.86,66.86,0,0,0-18.22,23.42c-5.74,12-6.32,24.72-6.11,37.67.07,4.35,1.38,7.26,5.81,8.26-9,14.85-7.51,28.21,4.65,40.37,1.19,1.19,1.31,1.74,0,2.81a25.55,25.55,0,0,0-6.57,8.07c-5.8,11.06-4.84,21.8,1.81,32.17-5,2.23-5.59,3.19-5.6,8.59,0,2.5-.11,5,0,7.49.11,1.82-.5,2.36-2.29,2.29-3.61-.13-7.23,0-10.85,0-6.1,0-6.41-.34-5.9-6.45,0-.37.12-.74.17-1.11l6.06-45.65Q188,239.35,194.13,193c1.05-7.84-.83-10.29-8.59-9.79-2.75.17-2.94-.83-2.92-3q.12-16.11,0-32.23c0-5.75-4.21-8.33-9.39-5.85-4.71,2.25-9.39,4.58-14,7.07-2.27,1.23-3.16,1-3.41-1.73q-1-11-2.31-22c-.26-2.12.52-2.42,2.37-2.42q62.67.08,125.33,0c1.87,0,2.69.32,2.35,2.43-.47,3-.63,6-1,8.93-1,7.56-1,7.56,6.35,8.28a8.68,8.68,0,0,1,1.85.25c2.66.9,3.16-.54,3.33-2.77.3-4.11,1.11-8.2,1.13-12.3s1.45-5.17,5.44-4.89c5.62.39,7.68-1.93,7.7-7.52q0-10.12,0-20.24c0-6.18-1.9-8.12-8-8.12-19.95,0-39.9-.07-59.85.07-3.08,0-4.16-.45-4.12-3.93.21-20,.11-40,.1-60,0-6.19-1.9-8.13-7.94-8.14q-10.09,0-20.2,0c-5.83,0-7.77,2-7.78,7.91,0,20.11-.08,40.23.09,60.34,0,3.2-.84,3.82-3.88,3.79-20.2-.14-40.4-.08-60.6-.07-4.93,0-7.35,2-7.41,6.38q-.15,11.63,0,23.24c.05,4,2.35,6.17,6.31,6.36a22.16,22.16,0,0,0,3.36,0c2.07-.23,3.11.21,3.18,2.7.1,3.6.78,7.19,1.15,10.79.59,5.72,1.13,11.44,1.68,17.17-6.94-1.71-11.44-4.74-9.82-12.62.47-2.31-1.07-4.28-3.29-5.39-8-4-15.95-8.13-24-12-4.16-2-8.13.68-8.46,5.29a31,31,0,0,0,0,5.62c.24,2.11-.66,3.11-2.46,4C91,141.16,85.8,144,80.38,146.52,76.71,148.2,74.38,150.49,75,155.32ZM266.46,183.2c0-6.19,0-6.19-6.16-6.19-5.81,0-5.81,0-5.81,5.8,0,6.19,0,6.19,6.16,6.19C266.46,189,266.46,189,266.46,183.2Zm12-.54c0,6.34,0,6.34,6.39,6.34,5.58,0,5.58,0,5.58-5.65,0-6.34,0-6.34-6.39-6.34C278.43,177,278.43,177,278.43,182.66Zm35.92.36c0-6,0-6-6-6s-6,0-6,6,0,6,6,6S314.35,189,314.35,183Zm-65.7,18c-6.13,0-6.13,0-6.13,6.22,0,5.77,0,5.77,5.83,5.77,6.14,0,6.14,0,6.14-6.21C254.49,201,254.49,201,248.65,201Zm23.52,12c6.26,0,6.26,0,6.26-6.1,0-5.89,0-5.89-5.71-5.89-6.26,0-6.26,0-6.26,6.1C266.46,213,266.46,213,272.17,213Zm30.21-5.75c0-6.24,0-6.24-6.12-6.24-5.86,0-5.86,0-5.86,5.75,0,6.24,0,6.24,6.12,6.24C302.38,213,302.38,213,302.38,207.24ZM320.63,213c5.69,0,5.69,0,5.69-5.54,0-6.45,0-6.45-6.28-6.45-5.69,0-5.69,0-5.69,5.54C314.35,213,314.35,213,320.63,213Z"/><path class="cls-2" d="M75,155.32c-.57-4.83,1.76-7.12,5.43-8.8C85.8,144,91,141.16,96.43,138.59c1.8-.86,2.7-1.86,2.46-4a31,31,0,0,1,0-5.62c.33-4.61,4.3-7.25,8.46-5.29,8.09,3.82,16,7.94,24,12,2.22,1.11,3.76,3.08,3.29,5.39-1.62,7.88,2.88,10.91,9.82,12.62-.55-5.73-1.09-11.45-1.68-17.17-.37-3.6-1.05-7.19-1.15-10.79-.07-2.49-1.11-2.93-3.18-2.7a22.16,22.16,0,0,1-3.36,0c-4-.19-6.26-2.39-6.31-6.36q-.13-11.62,0-23.24c.06-4.37,2.48-6.37,7.41-6.38,20.2,0,40.4-.07,60.6.07,3,0,3.9-.59,3.88-3.79-.17-20.11-.1-40.23-.09-60.34,0-5.93,1.95-7.9,7.78-7.91q10.11,0,20.2,0c6,0,7.94,1.95,7.94,8.14,0,20,.11,40-.1,60,0,3.48,1,3.95,4.12,3.93C260.5,87,280.45,87,300.4,87c6.06,0,8,1.94,8,8.12q0,10.11,0,20.24c0,5.59-2.08,7.91-7.7,7.52-4-.28-5.42.86-5.44,4.89s-.83,8.19-1.13,12.3c-.17,2.23-.67,3.67-3.33,2.77a8.68,8.68,0,0,0-1.85-.25c-7.38-.72-7.36-.72-6.35-8.28.4-3,.56-6,1-8.93.34-2.11-.48-2.43-2.35-2.43q-62.67.08-125.33,0c-1.85,0-2.63.3-2.37,2.42q1.32,11,2.31,22c.25,2.77,1.14,3,3.41,1.73,4.59-2.49,9.27-4.82,14-7.07,5.18-2.48,9.35.1,9.39,5.85q.12,16.11,0,32.23c0,2.21.17,3.21,2.92,3,7.76-.5,9.64,2,8.59,9.79q-6.21,46.38-12.28,92.79l-6.06,45.65c0,.37-.14.74-.17,1.11-.51,6.11-.2,6.45,5.9,6.45,3.62,0,7.24-.1,10.85,0,1.79.07,2.4-.47,2.29-2.29-.15-2.49,0-5,0-7.49,0-5.4.63-6.36,5.6-8.59-6.65-10.37-7.61-21.11-1.81-32.17a25.55,25.55,0,0,1,6.57-8.07c1.34-1.07,1.22-1.62,0-2.81-12.16-12.16-13.68-25.52-4.65-40.37-4.43-1-5.74-3.91-5.81-8.26-.21-13,.37-25.7,6.11-37.67a66.86,66.86,0,0,1,18.22-23.42c1.35-1.1,2.21-1.35,3.13.28.12.21.29.4.43.6,1.7,2.31,4.58,4.52,4.77,6.94.17,2.26-3.52,3.73-5.38,5.68C210.7,193,206,207,206.55,223c.06,1.71.62,2.21,2.17,2a14.59,14.59,0,0,1,1.87,0q73.89,0,147.77.09c3.42,0,4-1,3.95-4.09-.13-27.57-17.09-49.24-43.23-54.89A54.22,54.22,0,0,0,307.56,165q-23,.07-46,0A52.9,52.9,0,0,0,239,169.54c-1.95.89-2.88.65-3.59-1.35a40.33,40.33,0,0,0-1.95-4c-2.24-4.57-2.25-4.59,2.6-6.49A64.91,64.91,0,0,1,259.78,153c16.46,0,32.92-.13,49.38,0,35.52.31,64.55,29.33,65,64.9.05,3.5-.15,7,.06,10.49.26,4.4-1,7.63-5.65,8.77,7.72,13.79,7.41,25.83-1,36.39-1.51,1.91-4.34,3.59-4.5,5.54-.13,1.58,3,3.3,4.45,5.13,8.44,10.57,8.78,23.6.89,36.42,4.79,1.1,5.93,4.43,5.78,8.9-.22,6.23-.15,12.49,0,18.73.05,2.13-.58,2.66-2.68,2.68-9.35.11-9.33.18-9.35-9.07,0-2.85,1-6.65-.46-8.32-1.7-2-5.6-.62-8.54-.63-47.63,0-95.27,0-142.9-.11-3.15,0-4,.76-3.81,3.86.3,4.61,0,9.24.09,13.86.11,7.17,5.12,12.31,12.27,12.32q65.47.07,130.94,0a11.41,11.41,0,0,0,9-3.76c1.24-1.42,2.09-1.18,3.32-.24,1.39,1.05,2.87,2,4.32,3,4.08,2.75,4.1,2.77.4,6.28a23,23,0,0,1-16.16,6.71q-66.4.08-132.8,0c-11.95,0-21.56-9.1-23.11-21.36-.26-2.06-.74-2.67-2.81-2.62-5.48.15-11,.11-16.46,0-1.8,0-2.54.38-2.74,2.4-.51,5.21-1.34,10.39-2.08,15.58-.58,4.09-2.6,6-6.69,6q-59.1,0-118.21,0c-4.3,0-6.29-1.88-6.87-6.23Q31,309.31,23.15,249.93c-.69-5.2-1.34-10.4-2.16-15.58-.32-2,.28-2.8,2.32-3.16,9.44-1.69,9.23-1.73,10.47,7.93,3.24,25.25,6.66,50.48,10,75.72,1.92,14.47,4,28.93,5.66,43.43.43,3.68,1.51,4.79,5.33,4.77q50.51-.27,101,0c3.11,0,3.91-1,4.27-3.79Q166.44,310,173,260.87c2.74-20.78,5.47-41.57,8.33-62.34.35-2.57-.06-2.93-2.54-2.28a40.54,40.54,0,0,0-23.69,16.54c-11.5,16.58-27.27,24.57-47.38,24.22-7.47-.12-15,.28-22.28-1.77A53.15,53.15,0,0,1,55.1,213.52,41.33,41.33,0,0,0,30.67,196.2c-2.41-.62-2.69-.1-2.34,2.18.93,6,1.58,12.12,2.44,18.18.3,2.06.07,3-2.46,3.31-9.34,1-9.25,1.18-10.31-8.06-.75-6.57-1.66-13.12-2.63-19.66s1.41-9.54,7.76-9c3.44.29,4-.7,4-3.89-.21-10.24,0-20.49-.12-30.73,0-3.74,1.44-6,4.78-7.6,7.08-3.37,14-7,21-10.48,6.07-3,10.08-.57,10.14,6.12,0,3.13.21,6.27-.06,9.37-.23,2.7.8,4,3.22,5C69,152.07,71.65,153.66,75,155.32Zm206.81,165.6c-11.84-11.9-23.19-23.27-34.49-34.7A4.13,4.13,0,0,0,244,285c-6.73.05-13.47-.12-20.19.07a17.93,17.93,0,0,0-17.18,17.79c-.07,9.52,7.4,17.9,16.87,18C242.66,321.1,261.84,320.92,281.76,320.92Zm5.09-48c19.92,0,38.86.1,57.8,0a17.95,17.95,0,0,0,0-35.89c-6.61-.13-13.22,0-19.82-.05a3.81,3.81,0,0,0-3,1C310.37,249.47,298.91,260.9,286.85,273ZM219,99H149c-8.26,0-8.09,0-8.33,8.23-.09,3.13.72,3.84,3.83,3.84q71.64-.18,143.27-.08c8.66,0,8.52,0,8.69-8.61.06-2.81-.65-3.47-3.45-3.45C268.33,99.09,243.64,99,219,99Zm20.19,138c11,11,21.56,21.57,32,32.17,1.7,1.72,2.35.11,3.21-.74q15.09-15.06,30.13-30.18c.29-.29.88-.57.39-1.25Zm90.64,48.11H263C274,296.08,284.44,306.51,294.88,317c1.13,1.13,1.83,1.19,3,0C308.32,306.53,318.82,296.1,329.78,285.17ZM258.1,273c-11.65-11.62-22.72-22.53-33.59-33.63-2-2.1-3.81-2.13-6.22-1.21a18.22,18.22,0,0,0-11.56,19.33,17.91,17.91,0,0,0,17.1,15.46C234.9,273.1,246,273,258.1,273Zm52.75,48c12.09,0,23.28.2,34.46-.06,8.58-.19,15.64-7.1,16.8-15.76a18.21,18.21,0,0,0-12.24-19.23c-1.59-.5-3.07-1.05-4.71.62C334,297.85,322.7,309.07,310.85,320.92Zm-200-181.82v78.05c0,9,0,8.94,8.94,6.89,2.23-.52,3.12-1.39,3.11-3.94-.14-21.23-.07-42.46-.09-63.69,0-3.85,1.23-8.64-.58-11.3-2-3-6.9-4-10.53-5.92A5.12,5.12,0,0,0,110.82,139.1Zm-12,11.67c-3.33,1.65-6.13,3.24-9.09,4.44-2.33.94-3,2.31-3,4.8.12,18.48.07,37,.07,55.44,0,8.6.7,9.23,9.54,9.53,2,.06,2.48-.45,2.47-2.42C98.82,198.83,98.85,175.11,98.85,150.77Zm125.7-93.59V35.82c0-8.83,0-8.7-8.84-8.83-2.73,0-3.2.81-3.18,3.33.12,15.86.06,31.73.06,47.59,0,9.31,0,9.2,9.22,9.2,2.43,0,2.82-.76,2.79-3C224.48,75.16,224.55,66.17,224.55,57.18ZM74.9,216.92c0-15.7,0-30.79,0-45.88,0-1.26.09-2.38-1.42-3.07-3.46-1.58-6.83-3.36-10.56-5.21,0,13.55,0,26.63,0,39.72a4,4,0,0,0,.51,2.1C66.56,209.07,69.77,213.47,74.9,216.92Zm59.95-.06c5.05-3.39,8.22-7.82,11.39-12.26a4,4,0,0,0,.49-2.5q0-15.54,0-31.07c0-1.26.08-2.38-1.43-3.07-3.46-1.58-6.83-3.35-10.46-5.16Zm-84-72c-3.67,1.83-7.06,3.57-10.52,5.19-1.3.61-1.32,1.59-1.32,2.75q0,15.72,0,31.43c0,1.18,0,2.12,1.48,2.6,3.61,1.22,6.81,3.34,10.36,5.32Zm119.86,12.29a4.82,4.82,0,0,0-1,.16c-3.54,1.8-8.09,2.82-10.29,5.66s-.55,7.43-.61,11.26c-.1,5.89,0,11.79,0,18.25A43.55,43.55,0,0,1,168.78,187c1.66-.61,1.94-1.53,1.93-3.06C170.65,175.08,170.68,166.22,170.68,157.13Z"/><path class="cls-3" d="M266.46,183.2c0,5.8,0,5.8-5.81,5.8-6.16,0-6.16,0-6.16-6.19,0-5.8,0-5.8,5.81-5.8C266.46,177,266.46,177,266.46,183.2Z"/><path class="cls-3" d="M278.43,182.66c0-5.65,0-5.65,5.58-5.65,6.39,0,6.39,0,6.39,6.34,0,5.65,0,5.65-5.58,5.65C278.43,189,278.43,189,278.43,182.66Z"/><path class="cls-3" d="M314.35,183c0,6,0,6-6,6s-6,0-6-6,0-6,6-6S314.35,177,314.35,183Z"/><path class="cls-3" d="M248.65,201c5.84,0,5.84,0,5.84,5.78,0,6.21,0,6.21-6.14,6.21-5.83,0-5.83,0-5.83-5.77C242.52,201,242.52,201,248.65,201Z"/><path class="cls-3" d="M272.17,213c-5.71,0-5.71,0-5.71-5.89,0-6.1,0-6.1,6.26-6.1,5.71,0,5.71,0,5.71,5.89C278.43,213,278.43,213,272.17,213Z"/><path class="cls-3" d="M302.38,207.24c0,5.75,0,5.75-5.86,5.75-6.12,0-6.12,0-6.12-6.24,0-5.75,0-5.75,5.86-5.75C302.38,201,302.38,201,302.38,207.24Z"/><path class="cls-3" d="M320.63,213c-6.28,0-6.28,0-6.28-6.45,0-5.54,0-5.54,5.69-5.54,6.28,0,6.28,0,6.28,6.45C326.32,213,326.32,213,320.63,213Z"/><path class="cls-4" d="M281.76,320.92c-19.92,0-39.1.18-58.28-.08-9.47-.13-16.94-8.51-16.87-18A17.93,17.93,0,0,1,223.79,285c6.72-.19,13.46,0,20.19-.07a4.13,4.13,0,0,1,3.29,1.27C258.57,297.65,269.92,309,281.76,320.92Z"/><path class="cls-4" d="M286.85,273c12.06-12.06,23.52-23.49,34.93-35a3.81,3.81,0,0,1,3-1c6.6,0,13.21-.08,19.82.05a17.95,17.95,0,0,1,0,35.89C325.71,273.06,306.77,273,286.85,273Z"/><path class="cls-1" d="M219,99c24.69,0,49.38,0,74.06-.07,2.8,0,3.51.64,3.45,3.45-.17,8.61,0,8.61-8.69,8.61q-71.64,0-143.27.08c-3.11,0-3.92-.71-3.83-3.84C140.91,99,140.74,99,149,99Z"/><path class="cls-4" d="M239.14,237.06h65.77c.49.68-.1,1-.39,1.25q-15,15.1-30.13,30.18c-.86.85-1.51,2.46-3.21.74C260.7,258.63,250.15,248.1,239.14,237.06Z"/><path class="cls-4" d="M329.78,285.17c-11,10.93-21.46,21.36-31.9,31.84-1.17,1.17-1.87,1.11-3,0C284.44,306.51,274,296.08,263,285.17Z"/><path class="cls-4" d="M258.1,273c-12.12,0-23.2.15-34.27-.05a17.91,17.91,0,0,1-17.1-15.46,18.22,18.22,0,0,1,11.56-19.33c2.41-.92,4.17-.89,6.22,1.21C235.38,250.42,246.45,261.33,258.1,273Z"/><path class="cls-4" d="M310.85,320.92c11.85-11.85,23.15-23.07,34.31-34.43,1.64-1.67,3.12-1.12,4.71-.62a18.21,18.21,0,0,1,12.24,19.23c-1.16,8.66-8.22,15.57-16.8,15.76C334.13,321.12,322.94,320.92,310.85,320.92Z"/><path class="cls-4" d="M110.82,139.1a5.12,5.12,0,0,1,.85.09c3.63,1.89,8.49,2.94,10.53,5.92,1.81,2.66.58,7.45.58,11.3,0,21.23,0,42.46.09,63.69,0,2.55-.88,3.42-3.11,3.94-9,2.05-8.94,2.09-8.94-6.89V139.1Z"/><path class="cls-4" d="M98.85,150.77c0,24.34,0,48.06,0,71.79,0,2-.51,2.48-2.47,2.42-8.84-.3-9.54-.93-9.54-9.53,0-18.48.05-37-.07-55.44,0-2.49.62-3.86,3-4.8C92.72,154,95.52,152.42,98.85,150.77Z"/><path class="cls-1" d="M224.55,57.18c0,9-.07,18,0,27,0,2.2-.36,3-2.79,3-9.22,0-9.22.11-9.22-9.2,0-15.86.06-31.73-.06-47.59,0-2.52.45-3.37,3.18-3.33,8.84.13,8.84,0,8.84,8.83Z"/><path class="cls-4" d="M74.9,216.92c-5.13-3.45-8.34-7.85-11.44-12.34a4,4,0,0,1-.51-2.1c0-13.09,0-26.17,0-39.72,3.73,1.85,7.1,3.63,10.56,5.21,1.51.69,1.42,1.81,1.42,3.07C74.9,186.13,74.9,201.22,74.9,216.92Z"/><path class="cls-4" d="M134.85,216.86V162.8c3.63,1.81,7,3.58,10.46,5.16,1.51.69,1.43,1.81,1.43,3.07q0,15.53,0,31.07a4,4,0,0,1-.49,2.5C143.07,209,139.9,213.47,134.85,216.86Z"/><path class="cls-4" d="M50.82,144.84v47.29c-3.55-2-6.75-4.1-10.36-5.32-1.44-.48-1.48-1.42-1.48-2.6q0-15.72,0-31.43c0-1.16,0-2.14,1.32-2.75C43.76,148.41,47.15,146.67,50.82,144.84Z"/><path class="cls-5" d="M170.68,157.13c0,9.09,0,18,0,26.8,0,1.53-.27,2.45-1.93,3.06a43.55,43.55,0,0,0-10.07,5.47c0-6.46-.07-12.36,0-18.25.06-3.83-1.52-8.51.61-11.26s6.75-3.86,10.29-5.66A4.82,4.82,0,0,1,170.68,157.13Z"/></g></g></svg>