<svg id="Layer_1" data-name="Layer 1" xmlns="http://www.w3.org/2000/svg" viewBox="0 0 1920 1080"><defs><style>.cls-1{fill:#fff;stroke:#000;stroke-width:4px;}</style></defs><path class="cls-1" d="M851.9,623.34c9.14-15.59,7.6-26.73-5.87-42a30.67,30.67,0,0,0,11.27-19.5c1.19-8-.92-15.21-5.38-21.95,3.51-1.08,5.79-3,5.68-6.7-.2-7,0-14-.79-20.91-3.11-27.88-27.62-53.11-55.52-55.51-18.21-1.56-36.62-.79-54.94-.94a90.28,90.28,0,0,0-12.3.76,53.81,53.81,0,0,0-19.32,6.15l5.35,10.53a58.36,58.36,0,0,1,26.49-5.54c14.46.15,28.94,0,43.41.08a80.72,80.72,0,0,1,10.42.72c27.54,3.79,48.88,31.85,44.86,58.94H690.18c-1.62-19,3.62-31.31,20.91-49L704,469.27a66,66,0,0,0-20.1,24.9c-5.65,11.86-6.24,24.45-6.06,37.25.06,4.39,1.28,7.44,5.85,8.52-4.65,6.87-6.65,14.15-5.42,22.17s5.24,14.34,11.53,19.52a30.4,30.4,0,0,0-11.58,19.77c-1.19,7.94,1,15.16,5.43,22-4.64,1.09-6,4-5.77,8.19.18,3.29,0,6.61,0,9.76H659.17a68.91,68.91,0,0,1,.05-7.89c1.16-9.65,2.49-19.27,3.77-28.91q5.06-38,10.14-76c1.57-11.73,3.2-23.45,4.71-35.19.61-4.8-2-7.52-6.89-7.55h-5c0-11.57,0-23,0-34.48,0-6.49-4.06-9-9.88-6.18-5.35,2.6-10.66,5.29-16.48,8.18-1-9.34-1.93-18.27-2.88-27.25H767.07c-.62,6.21-1.23,12.25-1.87,18.65L777,446c.74-6.81,1.45-13.34,2.19-20.11h4.6c5.92,0,7.91-2,7.93-7.78q0-10.11,0-20.21c0-6-2-7.94-8.12-7.95H719.88v-4q0-29.94,0-59.87c0-6.08-1.94-8-8.09-8-6.74,0-13.48,0-20.21,0-5.61,0-7.62,2-7.63,7.68q0,30.12,0,60.25V390h-4q-30.32,0-60.62,0c-4.69,0-7.18,2-7.25,6.15-.12,7.85-.11,15.72,0,23.57,0,3.75,2.36,6,6.08,6.18,2.09.1,4.19,0,6.44,0,1.1,10.4,2.16,20.48,3.22,30.56a3.37,3.37,0,0,1-.72.09c-5.86-2.06-10.93-4.49-9.27-12.45.32-1.56-1.47-4.48-3.07-5.35-7.95-4.35-16.1-8.36-24.32-12.22-4-1.86-7.92.74-8.29,5.12-.17,2,.23,4-.15,6a5.59,5.59,0,0,1-2.2,3.58q-7.85,4.31-16,8.05c-3.75,1.73-6.26,4-5.69,8.57-11.95-4.52-11.95-4.52-11.95-16.69,0-.75,0-1.49,0-2.24-.14-5.94-4.24-8.49-9.62-5.87-5.71,2.77-11.16,6.19-17.07,8.38-7.33,2.72-10,7.16-9.41,15,.71,9.77.17,19.64.17,29.42-1.58,0-2.81,0-4,0-6.15-.11-8.58,2.74-7.64,8.89.47,3.08.82,6.17,1.24,9.26l2.7,19.73,11.78-1.51c-1-7.9-2-15.6-3-23.6.91.11,1.49.13,2.06.26,10.68,2.53,18.93,8.54,25.11,17.54C546,527.27,556,535,568.93,537.78c7.93,1.7,16.31,1.78,24.5,1.81,18.17.09,32.69-7.5,43.55-22.07,1.34-1.8,2.61-3.66,4.07-5.36a39.89,39.89,0,0,1,24-13.69c-7.46,56-14.86,111.44-22.24,166.77H533.48C527.58,621,521.7,577,515.8,532.74L504,534.4c.38,2.68.68,4.77,1,6.87Q513.55,606.12,522.2,671c.61,4.63,2.53,6.44,7,6.44q58.93,0,117.88,0c4.32,0,6.32-1.87,6.92-6.18.83-5.87,1.63-11.75,2.44-17.64h21.16c2.58,16.54,11.15,23.84,27.88,23.84h93.55c11.61,0,23.21.12,34.81,0,8.2-.12,14.68-3.68,19.61-10.54l-9.93-6.63c-3.24,4.34-7.5,5.32-12.39,5.29-17.71-.12-35.43-.05-53.14-.05q-37.62,0-75.22,0c-6.5,0-11.9-3.62-12.49-9.5-.67-6.73-.15-13.57-.15-20.16H845.86v17.43h11.75c0-7.37-.14-14.49,0-21.59C857.78,627.26,856.37,624.32,851.9,623.34ZM534,494.59c-3.46-1.7-6.92-3.29-10.25-5.13a3.41,3.41,0,0,1-1.38-2.55q-.15-15.69,0-31.38a3.87,3.87,0,0,1,1.71-2.75c3.11-1.78,6.38-3.28,9.91-5ZM558.19,519l-1.09.74c-3.46-4.14-6.94-8.26-10.34-12.45a3.53,3.53,0,0,1-.52-2.09c0-13.06,0-26.13,0-39.66,3.72,1.84,7.19,3.42,10.48,5.31a3.89,3.89,0,0,1,1.43,2.94C558.22,488.9,558.19,504,558.19,519ZM582,528l-11.86-1.86v-3.6c0-19.94,0-39.89,0-59.84,0-2.27.48-3.66,2.71-4.57,3.06-1.26,6-2.86,9.2-4.44Zm24.07-2-11.78,2V441.54c4.17,2.23,9.07,3.38,11.22,6.45,1.83,2.62.55,7.45.55,11.29C606.11,481.35,606.1,503.41,606.1,526.05Zm90-195.74h11.55v59.58H696.14Zm-66,168.56c.82,6.69-2,11.49-6.37,15.84-1.64,1.64-3.39,3.17-5.52,5.15v-54.1c4.06,2.08,9,3.13,11.17,6.16,1.85,2.57.56,7.43.58,11.27C630.08,488.42,629.55,493.72,630.18,498.87Zm-6-85.22V402.23h155.4v11.42Zm29.72,73.86a3.07,3.07,0,0,1-1.57,2c-3.25,1.75-6.59,3.33-10.32,5.19,0-9.37,0-18.62.05-27.86a2.75,2.75,0,0,1,1.27-1.95c3.36-1.79,6.8-3.44,10.64-5.34C654,469.19,654,478.35,653.93,487.51Zm154.32,52.23c6.73-.11,13.47-.2,20.2,0a17.9,17.9,0,0,1,17.17,17.77c.06,9.5-7.41,17.85-16.9,18-18,.27-35.91.1-53.87.11h-4.47C782.29,563.69,793.61,552.3,805,541A5.08,5.08,0,0,1,808.25,539.74Zm-20,.11-32.4,32.25L723.6,539.85Zm-86.34.82c2.29-.81,4-.65,5.88,1.31,10.88,11.1,21.95,22,33.58,33.6-12.16,0-23.36.19-34.55-.06-8.45-.19-15.49-6.92-16.77-15.37A18.28,18.28,0,0,1,701.94,540.67Zm5.22,82.77c-9.67-.11-17.29-8.41-17.21-18.08a17.91,17.91,0,0,1,17.22-17.72c6.73-.19,13.47-.09,20.2,0a4.63,4.63,0,0,1,3,1c11.51,11.36,22.94,22.8,35,34.83C745.3,623.49,726.23,623.64,707.16,623.44Zm40.59-35.7h64l-32,32Zm97.66,20.57c-1.56,8.71-8.62,15-17.34,15.16-11,.15-21.91,0-33.87,0l19-18.94c4.76-4.75,9.65-9.38,14.2-14.32,2.14-2.33,4-2.57,6.81-1.41C842,592.07,846.84,600.3,845.41,608.31Z"/><path class="cls-1" d="M738.08,479.9v11.64h11.51V479.9Z"/><path class="cls-1" d="M762.06,480.06v11.46h11.59V480.06Z"/><path class="cls-1" d="M785.94,480v11.69h11.6V480Z"/><path class="cls-1" d="M726.09,504v11.53h11.66V504Z"/><path class="cls-1" d="M749.93,504v11.5h11.63V504Z"/><path class="cls-1" d="M774,504v11.44h11.58V504Z"/><path class="cls-1" d="M797.83,504V515.5h11.64V504Z"/></svg>