<svg width="20" height="18" viewBox="0 0 20 18" fill="none" xmlns="http://www.w3.org/2000/svg">
<g clip-path="url(#clip0_2748_19516)">
<path d="M7.09863 6.39452C7.43808 5.99767 7.7546 5.62683 8.0721 5.25693C8.62736 4.60973 9.18408 3.9637 9.7386 3.3158C10.2356 2.7354 11.2537 2.80174 11.6487 3.45105C11.7558 3.62709 11.8253 3.82587 11.8992 4.01902C12.0964 4.53472 12.2901 5.05183 12.4778 5.57081C12.5198 5.68637 12.5676 5.75107 12.7117 5.74943C12.9016 5.74755 13.0928 5.77029 13.2821 5.79232C14.1416 5.89312 14.6023 6.89826 14.1014 7.57711C14.0568 7.63735 14.0148 7.70557 13.9548 7.74776C13.8719 7.80613 13.8697 7.85934 13.9056 7.94466C14.1992 8.64625 14.4901 9.34924 14.7766 10.0534C14.8125 10.1413 14.8525 10.1565 14.9468 10.1406C15.8198 9.99128 16.658 10.0944 17.4607 10.4646C18.292 10.8478 18.917 11.4362 19.344 12.2154C19.7164 12.8954 19.8505 13.6246 19.7844 14.3904C19.7349 14.9638 19.5598 15.4985 19.2619 15.9952C18.8566 16.671 18.2957 17.1925 17.5724 17.5514C16.7343 17.9673 15.8489 18.0995 14.9264 17.9255C13.6534 17.6855 12.6985 17.0099 12.0642 15.9204C11.7153 15.3213 11.5482 14.6734 11.5636 13.9908C11.5912 12.7674 12.1016 11.7583 13.0772 10.9704C13.1982 10.8727 13.3272 10.7829 13.4606 10.7018C13.5298 10.6596 13.5444 10.6275 13.5137 10.5541C13.2896 10.0189 13.0699 9.48215 12.849 8.94582C12.7356 8.67039 12.62 8.39566 12.5112 8.11859C12.4868 8.05624 12.4532 8.0396 12.3883 8.03444C12.0569 8.00748 11.7211 7.99834 11.3958 7.93763C10.9827 7.86051 10.7016 7.60524 10.5519 7.22503C10.4529 6.97351 10.3573 6.72058 10.267 6.46601C10.2424 6.39639 10.2002 6.39358 10.1393 6.39382C9.18432 6.39522 8.22914 6.39475 7.27421 6.39475C7.22617 6.39452 7.1791 6.39452 7.09863 6.39452ZM14.0668 11.908C12.9933 12.6436 12.5768 14.0953 13.2735 15.3135C13.9668 16.5254 15.5058 17.0174 16.8401 16.4314C18.0814 15.8862 18.7622 14.5022 18.283 13.1713C17.8202 11.886 16.4622 11.2386 15.3526 11.4245C15.357 11.4432 15.3587 11.4627 15.3658 11.48C15.4867 11.773 15.6087 12.0656 15.7294 12.3586C15.9267 12.837 16.1239 13.3152 16.32 13.7941C16.42 14.0383 16.3571 14.3269 16.169 14.4985C15.7872 14.8471 15.2156 14.7118 15.0227 14.2303C14.8364 13.7655 14.6457 13.3023 14.455 12.8389C14.3287 12.5309 14.1989 12.2243 14.0668 11.908Z" fill="#666666"/>
<path d="M0.000156141 14.0432C-0.0195961 11.8604 1.83736 10.1078 4.04594 10.0745C6.32964 10.04 8.22536 11.8049 8.23731 14.0156C8.24926 16.1958 6.40328 17.9881 4.14885 17.997C1.85516 18.0062 0.00722792 16.2453 0.000156141 14.0432ZM6.86832 14.0435C6.8727 12.5876 5.65368 11.408 4.14129 11.3893C2.63817 11.3707 1.38379 12.5491 1.36233 13.9954C1.34062 15.4506 2.56087 16.6578 4.07057 16.6754C5.61149 16.693 6.84661 15.531 6.86832 14.0435Z" fill="#666666"/>
<path d="M9.178 7.60218C9.4872 7.81784 9.78593 8.02599 10.0842 8.23462C10.4251 8.47301 10.7728 8.70297 11.1044 8.95284C11.4585 9.2196 11.6017 9.58247 11.5405 10.01C11.4012 10.9835 11.2564 11.9561 11.111 12.9286C11.0264 13.4959 10.9472 14.0644 10.8457 14.6288C10.7631 15.0892 10.4675 15.3967 10.0044 15.5247C9.53232 15.6551 9.11094 15.5395 8.77564 15.1872C8.49447 14.8918 8.43205 14.5383 8.4935 14.1506C8.61713 13.3684 8.73199 12.5848 8.8505 11.8016C8.91756 11.3579 8.98242 10.9139 9.05314 10.4709C9.06363 10.4045 9.05387 10.367 8.99413 10.3258C8.41424 9.92588 7.8346 9.5255 7.26081 9.11763C7.00062 8.93269 6.72482 8.75641 6.50682 8.53114C6.11348 8.12468 6.15591 7.41981 6.56095 7.02577C6.58607 7.00139 6.62947 6.98147 6.66435 6.98147C7.66366 6.97983 8.66273 6.98123 9.66205 6.98217C9.6657 6.98217 9.66961 6.98498 9.69131 6.99342C9.52012 7.19642 9.35186 7.3959 9.178 7.60218Z" fill="#666666"/>
<path d="M5.76297 6.86955C5.69225 6.83275 5.63397 6.81376 5.59081 6.77836C5.27355 6.517 4.96069 6.25094 4.64392 5.98911C4.214 5.63328 3.78189 5.27979 3.35076 4.92536C3.2737 4.86207 3.1964 4.79878 3.11983 4.73502C2.98547 4.62368 2.97108 4.51304 3.0874 4.38036C3.34149 4.09134 3.60071 3.80653 3.85749 3.51961C4.56686 2.72708 5.27575 1.93407 5.98536 1.14177C6.29798 0.792739 6.61134 0.444877 6.92493 0.0967798C7.03345 -0.0237062 7.16001 -0.0314417 7.28535 0.0721669C7.82695 0.520122 8.36879 0.967608 8.90991 1.4158C9.19229 1.64974 9.47467 1.88368 9.75511 2.11973C9.88728 2.23107 9.89264 2.34476 9.77827 2.47228C8.88796 3.46523 7.99741 4.45795 7.10734 5.45114C6.72058 5.88269 6.33602 6.31611 5.94635 6.74555C5.9005 6.79618 5.82905 6.82595 5.76297 6.86955Z" fill="#666666"/>
<path d="M14.9793 2.02049C14.9766 3.01298 14.1527 3.79543 13.1141 3.79192C12.1182 3.7884 11.2881 2.99001 11.292 2.03901C11.2959 1.03387 12.1089 0.245786 13.1377 0.249771C14.161 0.253756 14.9818 1.04301 14.9793 2.02049Z" fill="#666666"/>
</g>
<defs>
<clipPath id="clip0_2748_19516">
<rect width="19.8" height="18" fill="white"/>
</clipPath>
</defs>
</svg>
