<svg id="Layer_1" data-name="Layer 1" xmlns="http://www.w3.org/2000/svg" viewBox="0 0 384 384"><defs><style>.cls-1{fill:#fefefe;}.cls-2{fill:#020202;}</style></defs><circle class="cls-1" cx="192" cy="192" r="271.53"/><path class="cls-2" d="M516.62,534l11.84-1.66c5.91,44.26,11.78,88.29,17.68,132.5H655.46c7.38-55.33,14.78-110.81,22.24-166.77a39.87,39.87,0,0,0-24,13.69c-1.46,1.7-2.73,3.56-4.07,5.36-10.87,14.57-25.39,22.16-43.56,22.08-8.18,0-16.56-.12-24.5-1.82-12.9-2.76-23-10.51-30.44-21.4-6.19-9-14.44-15-25.12-17.54-.56-.13-1.15-.15-2-.26l3,23.6-11.78,1.52c-.92-6.73-1.81-13.23-2.69-19.74-.42-3.08-.78-6.18-1.25-9.26-.94-6.15,1.5-9,7.65-8.89,1.23,0,2.46,0,4,0,0-9.78.54-19.65-.17-29.42-.57-7.83,2.09-12.27,9.42-15,5.91-2.19,11.35-5.61,17.06-8.38,5.39-2.62,9.49-.07,9.62,5.87,0,.75,0,1.49,0,2.24,0,12.17,0,12.17,12,16.69-.58-4.53,1.93-6.84,5.68-8.57q8.13-3.75,16-8.05a5.64,5.64,0,0,0,2.21-3.58c.37-1.92,0-4,.15-6,.37-4.38,4.32-7,8.29-5.12,8.21,3.86,16.36,7.87,24.32,12.22,1.59.87,3.38,3.79,3.06,5.35-1.65,8,3.41,10.39,9.27,12.45a3.5,3.5,0,0,0,.73-.09c-1.06-10.08-2.13-20.16-3.22-30.56-2.26,0-4.35.08-6.44,0-3.73-.19-6-2.43-6.09-6.18-.1-7.85-.12-15.71,0-23.57.06-4.13,2.55-6.14,7.24-6.15q30.32,0,60.63,0h3.94v-3.92q0-30.12,0-60.25c0-5.65,2-7.66,7.62-7.68q10.11,0,20.21,0c6.16,0,8.09,1.89,8.09,8q0,29.94,0,59.87v4h63.73c6.17,0,8.11,1.9,8.12,7.94q0,10.11,0,20.21c0,5.81-2,7.75-7.92,7.78h-4.61c-.74,6.77-1.44,13.3-2.18,20.11l-11.83-1.3c.65-6.4,1.25-12.44,1.88-18.65H649.4c1,9,1.89,17.91,2.88,27.25,5.82-2.89,11.13-5.58,16.49-8.18,5.82-2.83,9.85-.31,9.87,6.18,0,11.45,0,22.91,0,34.48h5c4.92,0,7.51,2.75,6.89,7.55-1.51,11.74-3.14,23.46-4.71,35.19l-10.14,76c-1.28,9.64-2.61,19.26-3.77,28.91a69,69,0,0,0,0,7.89h18.78c0-3.15.14-6.47,0-9.76-.22-4.14,1.12-7.1,5.76-8.19-4.44-6.79-6.61-14-5.43-22a30.42,30.42,0,0,1,11.59-19.77c-6.3-5.18-10.31-11.57-11.53-19.52s.76-15.3,5.41-22.17c-4.57-1.08-5.79-4.13-5.85-8.52-.18-12.8.42-25.39,6.06-37.25a66,66,0,0,1,20.11-24.9l7,9.24c-17.29,17.71-22.52,30-20.9,49H857.92c4-27.09-17.31-55.15-44.85-58.94a80.87,80.87,0,0,0-10.43-.72c-14.47-.08-28.94.07-43.41-.08a58.22,58.22,0,0,0-26.48,5.55c-1.74-3.43-3.47-6.82-5.35-10.54a53.7,53.7,0,0,1,19.31-6.15,88.79,88.79,0,0,1,12.3-.75c18.32.14,36.74-.63,55,.93,27.89,2.4,52.41,27.63,55.52,55.51.77,6.92.58,13.94.78,20.91.11,3.73-2.17,5.62-5.68,6.7,4.46,6.74,6.57,14,5.38,22A30.67,30.67,0,0,1,858.69,581c13.47,15.21,15,26.35,5.88,41.94,4.47,1,5.88,3.92,5.76,8.26-.19,7.11-.05,14.22-.05,21.59H858.53V635.37H702.84c0,6.59-.51,13.43.16,20.16.58,5.88,6,9.5,12.48,9.5q37.62,0,75.22,0c17.72,0,35.43-.07,53.14.05,4.89,0,9.16-1,12.4-5.29l9.93,6.63c-4.94,6.86-11.42,10.42-19.62,10.54-11.6.17-23.2,0-34.8,0H718.19c-16.73,0-25.3-7.3-27.87-23.84H669.15q-1.21,8.84-2.43,17.64c-.6,4.31-2.6,6.18-6.92,6.18q-58.95,0-117.89,0c-4.52,0-6.43-1.81-7-6.44L517.58,540.88C517.3,538.79,517,536.69,516.62,534Z" transform="translate(-499 -305)"/><path class="cls-2" d="M750.74,479.51h11.51v11.64H750.74Z" transform="translate(-499 -305)"/><path class="cls-2" d="M786.31,479.67v11.46H774.72V479.67Z" transform="translate(-499 -305)"/><path class="cls-2" d="M810.21,491.28H798.6V479.59h11.61Z" transform="translate(-499 -305)"/><path class="cls-2" d="M750.42,503.59v11.53H738.76V503.59Z" transform="translate(-499 -305)"/><path class="cls-2" d="M762.59,515.1V503.6h11.63v11.5Z" transform="translate(-499 -305)"/><path class="cls-2" d="M798.28,503.63v11.44H786.71V503.63Z" transform="translate(-499 -305)"/><path class="cls-2" d="M810.49,515.11V503.6h11.65v11.51Z" transform="translate(-499 -305)"/><path class="cls-1" d="M778,623.11c-20,0-39.11.14-58.17-.06-9.68-.11-17.3-8.41-17.22-18.08a17.92,17.92,0,0,1,17.23-17.72c6.73-.19,13.46-.09,20.2,0a4.58,4.58,0,0,1,3,1C754.51,599.63,765.94,611.07,778,623.11Z" transform="translate(-499 -305)"/><path class="cls-1" d="M783.05,575.22c11.9-11.92,23.23-23.31,34.64-34.61a5.08,5.08,0,0,1,3.22-1.26c6.74-.11,13.48-.2,20.21,0a17.9,17.9,0,0,1,17.16,17.77c.07,9.5-7.41,17.85-16.89,18-18,.27-35.92.1-53.88.11Z" transform="translate(-499 -305)"/><path class="cls-1" d="M792.28,401.84v11.42H636.88V401.84Z" transform="translate(-499 -305)"/><path class="cls-1" d="M736.27,539.46H801l-32.41,32.25Z" transform="translate(-499 -305)"/><path class="cls-1" d="M760.41,587.35h64l-32,32Z" transform="translate(-499 -305)"/><path class="cls-1" d="M754.06,575.19c-12.16,0-23.36.19-34.55-.06-8.45-.19-15.48-6.92-16.76-15.37a18.27,18.27,0,0,1,11.85-19.48c2.29-.81,4-.65,5.89,1.31C731.37,552.69,742.44,563.6,754.06,575.19Z" transform="translate(-499 -305)"/><path class="cls-1" d="M806.87,623.12l19-18.94c4.76-4.75,9.65-9.38,14.21-14.32,2.14-2.33,4-2.57,6.8-1.41,7.79,3.23,12.64,11.46,11.21,19.47-1.55,8.71-8.62,15-17.33,15.16C829.78,623.23,818.82,623.12,806.87,623.12Z" transform="translate(-499 -305)"/><path class="cls-1" d="M607,441.15c4.17,2.23,9.06,3.38,11.21,6.45,1.83,2.62.55,7.45.56,11.29,0,22.07,0,44.13,0,66.77l-11.77,2Z" transform="translate(-499 -305)"/><path class="cls-1" d="M594.69,527.62l-11.85-1.87v-3.6c0-19.94,0-39.89-.05-59.84,0-2.27.48-3.66,2.71-4.57,3.06-1.26,6-2.86,9.19-4.44Z" transform="translate(-499 -305)"/><path class="cls-1" d="M720.35,389.5H708.8V329.92h11.55Z" transform="translate(-499 -305)"/><path class="cls-1" d="M569.76,519.39c-3.45-4.14-6.93-8.26-10.33-12.44a3.51,3.51,0,0,1-.52-2.1c0-13.06,0-26.13,0-39.66,3.71,1.84,7.18,3.42,10.48,5.31a4,4,0,0,1,1.43,2.94c.09,15.07.06,30.14.06,45.21Z" transform="translate(-499 -305)"/><path class="cls-1" d="M631,465.37c4.07,2.08,9,3.13,11.18,6.16,1.84,2.57.55,7.43.58,11.27,0,5.23-.5,10.53.13,15.68.83,6.69-2,11.49-6.37,15.84-1.64,1.64-3.38,3.17-5.52,5.15Z" transform="translate(-499 -305)"/><path class="cls-1" d="M546.62,494.2c-3.46-1.7-6.92-3.29-10.24-5.13a3.42,3.42,0,0,1-1.39-2.55q-.13-15.69,0-31.38a3.85,3.85,0,0,1,1.7-2.75c3.11-1.78,6.38-3.28,9.91-5.05Z" transform="translate(-499 -305)"/><path class="cls-1" d="M666.67,459.2c0,9.6,0,18.76-.07,27.92a3.13,3.13,0,0,1-1.57,2c-3.26,1.75-6.59,3.33-10.33,5.19,0-9.37,0-18.62.06-27.86a2.71,2.71,0,0,1,1.26-1.95C659.38,462.75,662.83,461.1,666.67,459.2Z" transform="translate(-499 -305)"/></svg>